<svg xmlns="http://www.w3.org/2000/svg" width="1500" height="215" version="1.0"><path d="M804.3 176.4c-16.7-3.6-27.3-14-29-28.2l-.6-5.2h13.7c12.8 0 13.6.1 13.6 1.9 0 2.7 4.8 8.1 8.7 9.7 4.2 1.8 15.4 1.8 19.7 0 7.1-2.9 9.9-11.1 5.4-15.3-3.8-3.5-7.9-5.1-22.9-8.8-7.9-2-17-4.8-20.1-6.2-7.1-3.2-13.3-9.6-14.8-15.5-2.6-9.2 1.2-22 8.2-28.4 8-7.2 18.9-10.4 35.2-10.4 21.4 0 35.6 8.3 40.1 23.3.8 2.8 1.5 6.3 1.5 7.9v2.8h-24.8l-.7-3c-.9-4-5.7-8.7-10.3-10-12.5-3.4-24.7 2.1-24 10.9.3 3.2.8 3.8 4.8 5.7 2.5 1.2 11 3.6 19 5.4 14.6 3.2 27.4 8.1 31.6 12.1 1.3 1.2 3.2 4.4 4.4 7.2 3.1 7.1 2.5 18.9-1.3 26.3-4.8 9.5-14.7 15.9-28.1 18.5-6.9 1.3-21.9 1-29.3-.7zM367 135.5V94h-31V71h88v23h-31v83h-26zm73-11.6v-53c21.167.2 62.363-.053 63.257.053.894.106 6.012 2.45 6.012 2.45 22.5 11.1 26.231 44.397 7.131 61.497l-5.2 4.6 10.9 18c5.9 9.9 10.9 18.3 10.9 18.8 0 .4-6 .7-13.4.7h-13.3l-9.9-17-9.8-17H466v34h-26zm54.3-3.3c4.2-1.8 6.7-4.7 7.7-9 1.564-6.116-2.351-15.732-7.442-17.454L466 93.9V122h12.5c8.4 0 13.6-.5 15.8-1.4zm47.1 50.2c6.1-16.3 20.5-53.6 29-75.3l9.4-24 14.5-.3 14.5-.3 2.7 7.3c1.6 4 6.6 17 11.3 28.8 11.6 29.5 26.2 68 26.2 69.1 0 .6-5.4.8-13.2.7l-13.1-.3-3.1-8.7-3.1-8.8h-44.3l-1.3 3.8c-.6 2-2 6.1-3.1 9l-1.9 5.2H539zm66.6-35.3c0-.3-3-8.7-6.7-18.7-5.8-15.7-6.8-17.8-7.7-15.7-.5 1.3-1.5 3.8-2.2 5.4-2.1 5-10.4 27.8-10.4 28.7 0 .4 6.1.8 13.5.8s13.5-.2 13.5-.5zm55-11.5V71h29.5l11 17.2c6.1 9.4 11.5 17.6 12 18.2.6.6 5.1 7.2 10 14.6l9 13.5.3-31.8.2-31.7h26v106h-29l-8.9-13.7c-24.9-38.6-32.7-50.2-33.3-50.3-.5 0-.8 14.4-.8 32v32h-26zm220 0V71h75v23h-49v19h40v21h-40v43h-26zm96.5 51.8c-.3-.7-.4-24.5-.3-52.8l.3-51.5 37.3-.3 37.2-.2v23h-48v19h39v21h-39v20h48v23h-37c-28.7 0-37.2-.3-37.5-1.2zm96.5-51.9v-53c21.167.2 61.27.323 63.5.6 2.23.277 5.865 2.336 5.865 2.336 6.304 3.83 12.935 10.364 16.435 17.964 2.3 4.9 2.7 7 2.7 15.2 0 8.8-.3 10.1-3.3 16.2-2.1 4.3-5.1 8.4-8.6 11.5l-5.3 4.8 10.9 17.8c5.9 9.9 10.8 18.3 10.8 18.8s-6 .9-13.3.9h-13.3l-9.8-17-9.8-17.1-10.2.3-10.1.3-.3 16.8-.2 16.7h-26zm54.9-3.7c5.1-2.6 7.5-6.3 7.5-11.9 0-2.7-.8-6.3-1.8-8.1-2.6-5.1-6.5-6.2-21.6-6.2h-13v13.3c0 7.4.3 13.7.7 14 .3.4 6.1.7 12.7.7 9.5 0 12.8-.4 15.5-1.8zm53.1 3.8V71h26l.2 41.3.3 41.2 24.3.3 24.2.2v23h-75zm89 51.9c0-1.3 23-61.8 25.6-67.4.7-1.6 4.2-10.6 7.8-20l6.4-17h29.4l6.4 17c3.6 9.4 7.1 18.4 7.8 20 1.6 3.5 6.2 15.3 17.9 46l8.4 22-13 .3c-9.8.2-13.2-.1-13.8-1-.5-.7-2.1-4.8-3.5-9l-2.7-7.8h-44.4l-3 8.8-3 8.7-13.2.3c-9.7.2-13.1-.1-13.1-.9zm68-40.5c0-.8-8.6-24.9-10.4-28.9-.7-1.6-1.7-4.1-2.2-5.4-.9-2.1-1.9-.1-7.7 15.5-3.7 9.9-6.7 18.2-6.7 18.7 0 .4 6.1.7 13.5.7s13.5-.3 13.5-.6zm55-11.4V71h28.3c16.2 0 30.9.5 34.2 1.1 10.8 2 19.2 7.6 23.1 15.6 2.8 5.6 2.7 19.3-.3 24.8-2.5 4.7-5.8 8-9.2 9.3-2.3.8-2.2 1 2.2 3.1 7.8 3.8 11.8 11.7 11.8 23.3 0 15.1-9.6 24.9-27.3 27.8-3.5.5-19 1-34.5 1H1396zm59.6 29.6c2.9-2.9 3.4-4.1 3.4-8 0-2.6-.7-6-1.5-7.6-2.6-5.1-5.9-6-21-6H1423v25h29.2zm-6.4-40.6c7.1-2 10.8-10.4 7.5-17-.7-1.3-2.8-3.5-4.6-4.7-3.1-2.1-4.5-2.3-16.2-2.3H1423v25h11.3c6.1 0 12.9-.5 14.9-1z"/><path fill="#00747b" d="M238.624 6.537v13.121h63.094v177.243h-63.094v13.122l76.215.018V6.537zM82.174 210.004v-13.121H19.062V19.64h63.112V6.518L5.94 6.5v203.504z" class="st0"/><g fill="#00747b" transform="translate(-78.369 -95.335) scale(1.83519)"><circle cx="189.41" cy="77.37" r="4.35" class="st0"/><path d="M185.21 88.15v9.39c-5.53-5.8-13.32-9.42-21.95-9.42-16.74 0-30.35 13.62-30.35 30.35 0 16.74 13.62 30.35 30.35 30.35 4.18 0 8.23-.84 12.04-2.48 2.13-.92 3.12-3.4 2.19-5.54a4.209 4.209 0 0 0-5.54-2.19 21.75 21.75 0 0 1-8.7 1.79c-12.09 0-21.93-9.84-21.93-21.93s9.84-21.93 21.93-21.93 21.93 9.84 21.93 21.93c0 .06.02.12.02.19v30.23h8.42V88.15zm-60.66 29.97c-.19-16.57-13.73-30-30.34-30-16.74 0-30.35 13.62-30.35 30.35 0 16.74 13.62 30.35 30.35 30.35 4.18 0 8.23-.84 12.04-2.48 2.13-.92 3.12-3.4 2.19-5.54a4.209 4.209 0 0 0-5.54-2.19 21.75 21.75 0 0 1-8.7 1.79c-12.09 0-21.93-9.84-21.93-21.93s9.84-21.93 21.93-21.93 21.93 9.84 21.93 21.93c0 .06.02.12.02.19v30.23h8.42v-30.78h-.02z" class="st0"/></g></svg>