<svg xmlns="http://www.w3.org/2000/svg" width="1500" height="215" version="1.0"><path d="M804.3 176.4c-16.7-3.6-27.3-14-29-28.2l-.6-5.2h13.7c12.8 0 13.6.1 13.6 1.9 0 2.7 4.8 8.1 8.7 9.7 4.2 1.8 15.4 1.8 19.7 0 7.1-2.9 9.9-11.1 5.4-15.3-3.8-3.5-7.9-5.1-22.9-8.8-7.9-2-17-4.8-20.1-6.2-7.1-3.2-13.3-9.6-14.8-15.5-2.6-9.2 1.2-22 8.2-28.4 8-7.2 18.9-10.4 35.2-10.4 21.4 0 35.6 8.3 40.1 23.3.8 2.8 1.5 6.3 1.5 7.9v2.8h-24.8l-.7-3c-.9-4-5.7-8.7-10.3-10-12.5-3.4-24.7 2.1-24 10.9.3 3.2.8 3.8 4.8 5.7 2.5 1.2 11 3.6 19 5.4 14.6 3.2 27.4 8.1 31.6 12.1 1.3 1.2 3.2 4.4 4.4 7.2 3.1 7.1 2.5 18.9-1.3 26.3-4.8 9.5-14.7 15.9-28.1 18.5-6.9 1.3-21.9 1-29.3-.7zM367 135.5V94h-31V71h88v23h-31v83h-26zm73-11.6v-53c21.167.2 62.363-.053 63.257.053.894.106 6.012 2.45 6.012 2.45 22.5 11.1 26.231 44.397 7.131 61.497l-5.2 4.6 10.9 18c5.9 9.9 10.9 18.3 10.9 18.8 0 .4-6 .7-13.4.7h-13.3l-9.9-17-9.8-17H466v34h-26zm54.3-3.3c4.2-1.8 6.7-4.7 7.7-9 1.564-6.116-2.351-15.732-7.442-17.454L466 93.9V122h12.5c8.4 0 13.6-.5 15.8-1.4zm47.1 50.2c6.1-16.3 20.5-53.6 29-75.3l9.4-24 14.5-.3 14.5-.3 2.7 7.3c1.6 4 6.6 17 11.3 28.8 11.6 29.5 26.2 68 26.2 69.1 0 .6-5.4.8-13.2.7l-13.1-.3-3.1-8.7-3.1-8.8h-44.3l-1.3 3.8c-.6 2-2 6.1-3.1 9l-1.9 5.2H539zm66.6-35.3c0-.3-3-8.7-6.7-18.7-5.8-15.7-6.8-17.8-7.7-15.7-.5 1.3-1.5 3.8-2.2 5.4-2.1 5-10.4 27.8-10.4 28.7 0 .4 6.1.8 13.5.8s13.5-.2 13.5-.5zm55-11.5V71h29.5l11 17.2c6.1 9.4 11.5 17.6 12 18.2.6.6 5.1 7.2 10 14.6l9 13.5.3-31.8.2-31.7h26v106h-29l-8.9-13.7c-24.9-38.6-32.7-50.2-33.3-50.3-.5 0-.8 14.4-.8 32v32h-26zm220 0V71h75v23h-49v19h40v21h-40v43h-26zm96.5 51.8c-.3-.7-.4-24.5-.3-52.8l.3-51.5 37.3-.3 37.2-.2v23h-48v19h39v21h-39v20h48v23h-37c-28.7 0-37.2-.3-37.5-1.2zm96.5-51.9v-53c21.167.2 61.27.323 63.5.6 2.23.277 5.865 2.336 5.865 2.336 6.304 3.83 12.935 10.364 16.435 17.964 2.3 4.9 2.7 7 2.7 15.2 0 8.8-.3 10.1-3.3 16.2-2.1 4.3-5.1 8.4-8.6 11.5l-5.3 4.8 10.9 17.8c5.9 9.9 10.8 18.3 10.8 18.8s-6 .9-13.3.9h-13.3l-9.8-17-9.8-17.1-10.2.3-10.1.3-.3 16.8-.2 16.7h-26zm54.9-3.7c5.1-2.6 7.5-6.3 7.5-11.9 0-2.7-.8-6.3-1.8-8.1-2.6-5.1-6.5-6.2-21.6-6.2h-13v13.3c0 7.4.3 13.7.7 14 .3.4 6.1.7 12.7.7 9.5 0 12.8-.4 15.5-1.8zm53.1 3.8V71h26l.2 41.3.3 41.2 24.3.3 24.2.2v23h-75zm89 51.9c0-1.3 23-61.8 25.6-67.4.7-1.6 4.2-10.6 7.8-20l6.4-17h29.4l6.4 17c3.6 9.4 7.1 18.4 7.8 20 1.6 3.5 6.2 15.3 17.9 46l8.4 22-13 .3c-9.8.2-13.2-.1-13.8-1-.5-.7-2.1-4.8-3.5-9l-2.7-7.8h-44.4l-3 8.8-3 8.7-13.2.3c-9.7.2-13.1-.1-13.1-.9zm68-40.5c0-.8-8.6-24.9-10.4-28.9-.7-1.6-1.7-4.1-2.2-5.4-.9-2.1-1.9-.1-7.7 15.5-3.7 9.9-6.7 18.2-6.7 18.7 0 .4 6.1.7 13.5.7s13.5-.3 13.5-.6zm55-11.4V71h28.3c16.2 0 30.9.5 34.2 1.1 10.8 2 19.2 7.6 23.1 15.6 2.8 5.6 2.7 19.3-.3 24.8-2.5 4.7-5.8 8-9.2 9.3-2.3.8-2.2 1 2.2 3.1 7.8 3.8 11.8 11.7 11.8 23.3 0 15.1-9.6 24.9-27.3 27.8-3.5.5-19 1-34.5 1H1396zm59.6 29.6c2.9-2.9 3.4-4.1 3.4-8 0-2.6-.7-6-1.5-7.6-2.6-5.1-5.9-6-21-6H1423v25h29.2zm-6.4-40.6c7.1-2 10.8-10.4 7.5-17-.7-1.3-2.8-3.5-4.6-4.7-3.1-2.1-4.5-2.3-16.2-2.3H1423v25h11.3c6.1 0 12.9-.5 14.9-1z"/><path fill="#00747b" d="M238.624 6.537v13.121h63.094v177.243h-63.094v13.122l76.215.018V6.537zM82.174 210.004v-13.121H19.062V19.64h63.112V6.518L5.94 6.5v203.504z" class="st0"/><g fill="#00747b" transform="translate(-78.369 -95.335) scale(1.83519)"><circle cx="189.41" cy="77.37" r="4.35" class="st0"/><path d="M185.21 88.15v9.39c-5.53-5.8-13.32-9.42-21.95-9.42-16.74 0-30.35 13.62-30.35 30.35 0 16.74 13.62 30.35 30.35 30.35 4.18 0 8.23-.84 12.04-2.48 2.13-.92 3.12-3.4 2.19-5.54a4.209 4.209 0 0 0-5.54-2.19 21.75 21.75 0 0 1-8.7 1.79c-12.09 0-21.93-9.84-21.93-21.93s9.84-21.93 21.93-21.93 21.93 9.84 21.93 21.93c0 .06.02.12.02.19v30.23h8.42V88.15zm-60.66 29.97c-.19-16.57-13.73-30-30.34-30-16.74 0-30.35 13.62-30.35 30.35 0 16.74 13.62 30.35 30.35 30.35 4.18 0 8.23-.84 12.04-2.48 2.13-.92 3.12-3.4 2.19-5.54a4.209 4.209 0 0 0-5.54-2.19 21.75 21.75 0 0 1-8.7 1.79c-12.09 0-21.93-9.84-21.93-21.93s9.84-21.93 21.93-21.93 21.93 9.84 21.93 21.93c0 .06.02.12.02.19v30.23h8.42v-30.78h-.02z" class="st0"/></g><path style="fill:#f9f9f9;stroke-width:.80128205" d="m367.51 135.163-.207-41.466-15.425-.218-15.424-.217v-21.6h87.34v21.634h-31.252v83.334h-24.824zm73.11-11.017V71.662h64.156l4.086 2.07c12.01 6.086 19.098 18.227 19.098 32.711 0 11.585-2.99 18.766-11.443 27.491l-5.602 5.782 10.526 17.561c5.789 9.659 10.525 17.964 10.525 18.457 0 .622-3.886.896-12.74.896h-12.742l-9.601-16.627-9.6-16.627-10.912-.223-10.91-.223v33.7h-24.84zm55.286-4.05c6.671-3.919 8.412-12.057 4.331-20.246-1.145-2.298-2.752-4.537-3.572-4.975-.82-.44-8.176-1.03-16.348-1.315l-14.857-.517v29.232l13.822-.267c12.21-.235 14.15-.458 16.624-1.912zm44.271 55.152c.45-1.623 25.588-66.916 34.25-88.963l5.747-14.623h28.382l12.274 31.45c22.868 58.594 27.73 71.967 26.46 72.771-1.303.825-15.537.994-20.966.25l-3.623-.497-2.788-8.117-2.789-8.117h-45.295l-3.003 8.413-3.003 8.414-13.02.22c-12.144.206-12.995.125-12.626-1.201zm65.407-39.183c1.377-.276 2.49-.907 2.472-1.403-.018-.495-2.813-8.292-6.21-17.325-3.98-10.583-6.612-16.504-7.398-16.65-1.316-.245-1.331-.21-8.406 19.052-6.002 16.34-5.92 15.842-2.666 16.241 4.533.557 19.562.614 22.208.085zm57.793-11.919V71.662l14.623.015 14.624.016 4.358 6.996c4.753 7.627 16.878 25.911 29.452 44.412l8.004 11.776.527-18.116c.29-9.963.527-24.186.527-31.607V71.662h24.84V176.63H732.26l-7.92-12.22c-22.885-35.312-33.993-51.809-34.623-51.42-.385.238-.7 14.654-.7 32.036v31.604h-25.641zm143.83 52.421c-17.855-3.016-29.451-13.586-31.522-28.733l-.691-5.052 12.901.58c7.096.319 13.172.745 13.503.945.33.201.6.9.6 1.553 0 2.047 3.462 6.001 7.15 8.168 3.152 1.852 4.393 2.082 11.267 2.082 6.197 0 8.349-.322 10.88-1.629 6.18-3.19 8.685-10.446 5.156-14.933-2.412-3.066-6.966-4.919-22.834-9.292-19.702-5.43-22.855-6.715-27.984-11.402-6.425-5.873-7.949-9.564-7.511-18.196.754-14.867 8.911-24.009 25.22-28.263 8.246-2.152 24.632-2.388 32.518-.469 14.316 3.485 23.413 12.26 26.142 25.216 1.493 7.088 2.392 6.57-11.426 6.57h-12.32l-.507-2.536c-1.357-6.788-8.286-11.247-17.564-11.305-9.953-.061-17.385 4.801-17.385 11.375 0 5.266 2.612 6.624 22.436 11.662 25.377 6.45 32.52 9.92 36.458 17.704 2.22 4.39 2.403 5.392 2.39 13.165-.013 7.54-.252 8.931-2.303 13.4-4.167 9.077-12.899 15.575-25.132 18.704-6.507 1.664-21.573 2.015-29.442.686zm76.523-52.421V71.662h73.717v21.634h-48.879v20.032h40.064v20.032H908.57v43.27h-24.84zm99.158 51.9-3.005-.314V71.662h73.718v21.634h-48.077v20.032h39.263v20.032h-39.263v20.834h48.077v22.436l-33.854-.135c-18.62-.074-35.206-.276-36.859-.45zm93.149-51.9V71.662h63.788l4.218 2.101c6.006 2.994 13.877 11.16 17.092 17.737 2.557 5.232 2.64 5.717 2.641 15.418.001 9.769-.066 10.154-2.73 15.604-1.794 3.673-4.608 7.507-8.212 11.191-3.016 3.082-5.483 5.844-5.483 6.14 0 .294 2.404 4.452 5.342 9.24 12.387 20.19 15.62 26.16 14.536 26.848-.576.365-6.336.67-12.8.676l-11.753.013-9.342-16.226c-5.139-8.925-9.766-16.587-10.283-17.028-.551-.47-4.963-.7-10.665-.555l-9.725.246-.491 2.458c-.27 1.353-.492 8.904-.492 16.782v14.323h-25.641zm56.627-4.536c1.77-1.173 3.816-3.39 4.546-4.93 2.73-5.752.743-15.623-3.736-18.558-2.362-1.548-12.974-2.791-23.983-2.812l-7.813-.014v13.156c0 7.235.23 13.755.512 14.489.454 1.185 1.999 1.303 13.883 1.067 12.924-.257 13.48-.338 16.59-2.398zm51.546 4.536V71.662h25.627l.207 41.065.208 41.066 24.239.212 24.238.212v22.413h-74.519zm90.044 51.309c-.472-1.23 8.628-25.925 24.518-66.534 5.174-13.22 10.491-26.923 11.817-30.449l2.411-6.41 14.38-.218 14.381-.217 7.849 20.25a86106.297 86106.297 0 0 1 20.087 51.9l12.238 31.65-2.909.648c-4.295.955-21.469.349-22.613-.798-.523-.524-2.118-4.31-3.544-8.414l-2.593-7.461-22.775-.212-22.775-.213-2.694 8.334-2.694 8.335-3.59.492c-1.973.27-7.516.492-12.316.492-6.93 0-8.82-.243-9.178-1.175zm66.663-39.88c.598-.598-2.256-9.053-8.71-25.8-3.913-10.154-4.022-10.328-5.38-8.65-1.405 1.734-12.81 31.544-12.81 33.48 0 .58.992 1.222 2.204 1.43 3.322.567 24.054.181 24.696-.46zm55.633-11.383V71.545l31.05.286c29.86.274 31.249.355 36.258 2.11 8.82 3.089 15.646 9.107 18.087 15.948 1.39 3.895 1.382 15.763-.014 19.675-1.675 4.696-4.953 8.91-8.47 10.886-1.756.987-3.193 2.078-3.193 2.423 0 .346 1.455 1.285 3.233 2.087 3.828 1.726 8.235 6.368 10.05 10.586 1.97 4.58 2.423 15.777.857 21.166-2.378 8.18-9.817 14.63-20.452 17.73-4.703 1.372-8.84 1.596-36.357 1.972l-31.05.424zm59.193 29.619c3.07-3.33 3.307-3.916 3.307-8.16 0-5.553-2.301-10.785-5.42-12.325-1.502-.74-6.672-1.183-16.415-1.403l-14.223-.32v25.796h29.444zm-3.988-41.685c4.466-2.63 6.093-5.48 6.093-10.675 0-5.1-1.341-7.506-5.95-10.675-2.556-1.757-3.644-1.906-15.825-2.17l-13.08-.282v25.943l13.02-.269c11.276-.233 13.385-.484 15.742-1.872z"/></svg>